STARTFONT 2.1
COMMENT
COMMENT Converted from OpenType font "CircularStd-Bold.otf" by "otf2bdf 3.0".
COMMENT
FONT -FreeType-Circular Std Bold-Medium-R-Normal--12-90-100-100-P-67-ISO10646-1
SIZE 9 100 100
FONTBOUNDINGBOX 19 14 0 -3
STARTPROPERTIES 19
FOUNDRY "FreeType"
FAMILY_NAME "Circular Std Bold"
WEIGHT_NAME "Medium"
SLANT "R"
SETWIDTH_NAME "Normal"
ADD_STYLE_NAME ""
PIXEL_SIZE 12
POINT_SIZE 90
RESOLUTION_X 100
RESOLUTION_Y 100
SPACING "P"
AVERAGE_WIDTH 67
CHARSET_REGISTRY "ISO10646"
CHARSET_ENCODING "1"
FONT_ASCENT 12
FONT_DESCENT 3
COPYRIGHT "Generated in 2013 by FontLab Studio. Copyright info pending."
_OTF_FONTFILE "CircularStd-Bold.otf"
_OTF_PSNAME "CircularStd-Bold"
ENDPROPERTIES
CHARS 332
STARTCHAR 0000
ENCODING 0
SWIDTH 0 0
DWIDTH 0 0
BBX 0 0 0 0
BITMAP
ENDCHAR
STARTCHAR 000D
ENCODING 13
SWIDTH 240 0
DWIDTH 3 0
BBX 0 0 0 0
BITMAP
ENDCHAR
STARTCHAR 0020
ENCODING 32
SWIDTH 240 0
DWIDTH 3 0
BBX 0 0 0 0
BITMAP
ENDCHAR
STARTCHAR 0021
ENCODING 33
SWIDTH 320 0
DWIDTH 4 0
BBX 2 9 1 0
BITMAP
C0
C0
C0
C0
C0
C0
00
C0
C0
ENDCHAR
STARTCHAR 0022
ENCODING 34
SWIDTH 400 0
DWIDTH 5 0
BBX 5 4 0 5
BITMAP
50
D8
50
50
ENDCHAR
STARTCHAR 0023
ENCODING 35
SWIDTH 720 0
DWIDTH 9 0
BBX 8 9 1 0
BITMAP
36
24
24
FF
24
6C
FE
48
48
ENDCHAR
STARTCHAR 0024
ENCODING 36
SWIDTH 560 0
DWIDTH 7 0
BBX 6 11 1 -1
BITMAP
20
30
F8
CC
C0
78
1C
8C
F8
70
20
ENDCHAR
STARTCHAR 0025
ENCODING 37
SWIDTH 880 0
DWIDTH 11 0
BBX 9 9 1 0
BITMAP
E300
B200
B400
EC00
0800
1380
3480
2480
6300
ENDCHAR
STARTCHAR 0026
ENCODING 38
SWIDTH 720 0
DWIDTH 9 0
BBX 7 9 1 0
BITMAP
70
D8
C8
78
72
DE
8C
DE
76
ENDCHAR
STARTCHAR 0027
ENCODING 39
SWIDTH 240 0
DWIDTH 3 0
BBX 2 4 0 5
BITMAP
40
C0
40
40
ENDCHAR
STARTCHAR 0028
ENCODING 40
SWIDTH 320 0
DWIDTH 4 0
BBX 3 12 1 -2
BITMAP
20
60
C0
80
80
80
80
80
80
C0
60
20
ENDCHAR
STARTCHAR 0029
ENCODING 41
SWIDTH 320 0
DWIDTH 4 0
BBX 4 12 0 -2
BITMAP
80
40
60
20
20
30
30
20
20
60
40
80
ENDCHAR
STARTCHAR 002A
ENCODING 42
SWIDTH 480 0
DWIDTH 6 0
BBX 4 5 1 4
BITMAP
60
F0
F0
E0
A0
ENDCHAR
STARTCHAR 002B
ENCODING 43
SWIDTH 560 0
DWIDTH 7 0
BBX 6 6 1 1
BITMAP
20
20
20
FC
20
20
ENDCHAR
STARTCHAR 002C
ENCODING 44
SWIDTH 320 0
DWIDTH 4 0
BBX 2 4 1 -2
BITMAP
C0
C0
40
80
ENDCHAR
STARTCHAR 002D
ENCODING 45
SWIDTH 400 0
DWIDTH 5 0
BBX 3 1 1 3
BITMAP
E0
ENDCHAR
STARTCHAR 002E
ENCODING 46
SWIDTH 320 0
DWIDTH 4 0
BBX 2 2 1 0
BITMAP
C0
C0
ENDCHAR
STARTCHAR 002F
ENCODING 47
SWIDTH 480 0
DWIDTH 6 0
BBX 6 9 0 0
BITMAP
0C
08
18
10
30
20
60
40
C0
ENDCHAR
STARTCHAR 0030
ENCODING 48
SWIDTH 640 0
DWIDTH 8 0
BBX 6 9 1 0
BITMAP
78
FC
CC
8C
84
8C
CC
FC
78
ENDCHAR
STARTCHAR 0031
ENCODING 49
SWIDTH 400 0
DWIDTH 5 0
BBX 4 9 0 0
BITMAP
30
30
F0
30
30
30
30
30
30
ENDCHAR
STARTCHAR 0032
ENCODING 50
SWIDTH 560 0
DWIDTH 7 0
BBX 6 9 0 0
BITMAP
38
7C
C4
4C
1C
38
60
60
FC
ENDCHAR
STARTCHAR 0033
ENCODING 51
SWIDTH 560 0
DWIDTH 7 0
BBX 6 9 0 0
BITMAP
FC
0C
18
30
3C
04
C4
6C
78
ENDCHAR
STARTCHAR 0034
ENCODING 52
SWIDTH 560 0
DWIDTH 7 0
BBX 7 9 0 0
BITMAP
1C
1C
3C
6C
6C
CC
FE
0C
0C
ENDCHAR
STARTCHAR 0035
ENCODING 53
SWIDTH 560 0
DWIDTH 7 0
BBX 7 9 0 0
BITMAP
7C
7C
60
78
6C
06
C6
6C
38
ENDCHAR
STARTCHAR 0036
ENCODING 54
SWIDTH 560 0
DWIDTH 7 0
BBX 6 9 1 0
BITMAP
3C
78
C0
B8
DC
8C
8C
DC
78
ENDCHAR
STARTCHAR 0037
ENCODING 55
SWIDTH 480 0
DWIDTH 6 0
BBX 6 9 0 0
BITMAP
FC
0C
18
18
30
30
20
60
60
ENDCHAR
STARTCHAR 0038
ENCODING 56
SWIDTH 560 0
DWIDTH 7 0
BBX 7 9 0 0
BITMAP
38
6C
44
6C
38
44
C6
6C
3C
ENDCHAR
STARTCHAR 0039
ENCODING 57
SWIDTH 560 0
DWIDTH 7 0
BBX 7 9 0 0
BITMAP
38
6C
C6
C6
6E
3E
04
5C
78
ENDCHAR
STARTCHAR 003A
ENCODING 58
SWIDTH 320 0
DWIDTH 4 0
BBX 2 6 1 0
BITMAP
C0
C0
00
00
C0
C0
ENDCHAR
STARTCHAR 003B
ENCODING 59
SWIDTH 320 0
DWIDTH 4 0
BBX 2 8 1 -2
BITMAP
C0
C0
00
00
C0
C0
40
80
ENDCHAR
STARTCHAR 003C
ENCODING 60
SWIDTH 480 0
DWIDTH 6 0
BBX 6 7 0 0
BITMAP
04
1C
70
C0
70
1C
04
ENDCHAR
STARTCHAR 003D
ENCODING 61
SWIDTH 640 0
DWIDTH 8 0
BBX 6 3 1 2
BITMAP
FC
00
FC
ENDCHAR
STARTCHAR 003E
ENCODING 62
SWIDTH 480 0
DWIDTH 6 0
BBX 6 7 0 0
BITMAP
80
E0
38
0C
38
E0
80
ENDCHAR
STARTCHAR 003F
ENCODING 63
SWIDTH 560 0
DWIDTH 7 0
BBX 6 9 0 0
BITMAP
38
6C
CC
0C
18
30
00
30
30
ENDCHAR
STARTCHAR 0040
ENCODING 64
SWIDTH 800 0
DWIDTH 10 0
BBX 10 10 0 -1
BITMAP
1F00
3180
4DC0
5A40
D240
52C0
5F80
6000
3100
1F00
ENDCHAR
STARTCHAR 0041
ENCODING 65
SWIDTH 720 0
DWIDTH 9 0
BBX 9 9 0 0
BITMAP
1C00
1C00
1400
3600
3600
7F00
7F00
4300
C180
ENDCHAR
STARTCHAR 0042
ENCODING 66
SWIDTH 640 0
DWIDTH 8 0
BBX 6 9 1 0
BITMAP
F8
DC
CC
DC
F8
CC
CC
CC
F8
ENDCHAR
STARTCHAR 0043
ENCODING 67
SWIDTH 800 0
DWIDTH 10 0
BBX 9 9 0 0
BITMAP
1E00
3F00
6180
4000
C000
4000
6180
3F00
1E00
ENDCHAR
STARTCHAR 0044
ENCODING 68
SWIDTH 720 0
DWIDTH 9 0
BBX 8 9 1 0
BITMAP
F8
FE
C6
C2
C3
C2
C6
FE
F8
ENDCHAR
STARTCHAR 0045
ENCODING 69
SWIDTH 560 0
DWIDTH 7 0
BBX 6 9 1 0
BITMAP
FC
FC
C0
F8
F8
C0
C0
FC
FC
ENDCHAR
STARTCHAR 0046
ENCODING 70
SWIDTH 560 0
DWIDTH 7 0
BBX 6 9 1 0
BITMAP
FC
FC
C0
C0
F8
F8
C0
C0
C0
ENDCHAR
STARTCHAR 0047
ENCODING 71
SWIDTH 800 0
DWIDTH 10 0
BBX 9 9 0 0
BITMAP
1E00
3F00
6180
4000
C000
4780
6180
7F80
1E80
ENDCHAR
STARTCHAR 0048
ENCODING 72
SWIDTH 720 0
DWIDTH 9 0
BBX 7 9 1 0
BITMAP
C2
C2
C2
FE
FE
C2
C2
C2
C2
ENDCHAR
STARTCHAR 0049
ENCODING 73
SWIDTH 320 0
DWIDTH 4 0
BBX 2 9 1 0
BITMAP
C0
C0
C0
C0
C0
C0
C0
C0
C0
ENDCHAR
STARTCHAR 004A
ENCODING 74
SWIDTH 560 0
DWIDTH 7 0
BBX 6 9 0 0
BITMAP
0C
0C
0C
0C
0C
CC
CC
7C
78
ENDCHAR
STARTCHAR 004B
ENCODING 75
SWIDTH 720 0
DWIDTH 9 0
BBX 7 9 1 0
BITMAP
C6
CC
D8
F0
F0
F8
CC
CE
C6
ENDCHAR
STARTCHAR 004C
ENCODING 76
SWIDTH 560 0
DWIDTH 7 0
BBX 6 9 1 0
BITMAP
C0
C0
C0
C0
C0
C0
C0
FC
FC
ENDCHAR
STARTCHAR 004D
ENCODING 77
SWIDTH 960 0
DWIDTH 12 0
BBX 10 9 1 0
BITMAP
C1C0
E1C0
E1C0
F3C0
F2C0
DEC0
DEC0
CCC0
CCC0
ENDCHAR
STARTCHAR 004E
ENCODING 78
SWIDTH 800 0
DWIDTH 10 0
BBX 8 9 1 0
BITMAP
C3
E3
F3
F3
DB
CF
CF
C7
C7
ENDCHAR
STARTCHAR 004F
ENCODING 79
SWIDTH 800 0
DWIDTH 10 0
BBX 10 9 0 0
BITMAP
1E00
3F00
6180
4080
C0C0
4080
6180
3F00
1E00
ENDCHAR
STARTCHAR 0050
ENCODING 80
SWIDTH 640 0
DWIDTH 8 0
BBX 6 9 1 0
BITMAP
F8
DC
CC
CC
FC
E0
C0
C0
C0
ENDCHAR
STARTCHAR 0051
ENCODING 81
SWIDTH 800 0
DWIDTH 10 0
BBX 10 10 0 -1
BITMAP
1E00
3F00
6180
4080
C0C0
4680
6380
3F80
1F80
0080
ENDCHAR
STARTCHAR 0052
ENCODING 82
SWIDTH 640 0
DWIDTH 8 0
BBX 6 9 1 0
BITMAP
F8
DC
C4
CC
FC
D8
D8
CC
CC
ENDCHAR
STARTCHAR 0053
ENCODING 83
SWIDTH 640 0
DWIDTH 8 0
BBX 7 9 0 0
BITMAP
3C
7E
44
60
3C
06
C6
7E
3C
ENDCHAR
STARTCHAR 0054
ENCODING 84
SWIDTH 640 0
DWIDTH 8 0
BBX 8 9 0 0
BITMAP
FF
FF
18
18
18
18
18
18
18
ENDCHAR
STARTCHAR 0055
ENCODING 85
SWIDTH 720 0
DWIDTH 9 0
BBX 7 9 1 0
BITMAP
C6
C6
C6
C6
C6
C6
C6
FC
78
ENDCHAR
STARTCHAR 0056
ENCODING 86
SWIDTH 720 0
DWIDTH 9 0
BBX 8 9 0 0
BITMAP
C3
63
63
66
36
34
3C
1C
18
ENDCHAR
STARTCHAR 0057
ENCODING 87
SWIDTH 1040 0
DWIDTH 13 0
BBX 13 9 0 0
BITMAP
C718
4710
6730
6D30
6DA0
2DA0
38E0
38E0
38C0
ENDCHAR
STARTCHAR 0058
ENCODING 88
SWIDTH 640 0
DWIDTH 8 0
BBX 7 9 1 0
BITMAP
C6
CC
6C
78
30
78
6C
CC
C6
ENDCHAR
STARTCHAR 0059
ENCODING 89
SWIDTH 640 0
DWIDTH 8 0
BBX 8 9 0 0
BITMAP
C3
66
36
3C
18
18
18
18
18
ENDCHAR
STARTCHAR 005A
ENCODING 90
SWIDTH 640 0
DWIDTH 8 0
BBX 7 9 0 0
BITMAP
7E
7E
0E
0C
18
30
60
FE
FE
ENDCHAR
STARTCHAR 005B
ENCODING 91
SWIDTH 320 0
DWIDTH 4 0
BBX 3 12 1 -2
BITMAP
E0
80
80
80
80
80
80
80
80
80
80
E0
ENDCHAR
STARTCHAR 005C
ENCODING 92
SWIDTH 480 0
DWIDTH 6 0
BBX 6 9 0 0
BITMAP
C0
40
60
20
30
10
18
08
0C
ENDCHAR
STARTCHAR 005D
ENCODING 93
SWIDTH 320 0
DWIDTH 4 0
BBX 3 12 0 -2
BITMAP
E0
20
20
20
20
20
20
20
20
20
20
E0
ENDCHAR
STARTCHAR 005E
ENCODING 94
SWIDTH 560 0
DWIDTH 7 0
BBX 6 5 0 4
BITMAP
30
38
68
4C
C4
ENDCHAR
STARTCHAR 005F
ENCODING 95
SWIDTH 560 0
DWIDTH 7 0
BBX 6 1 0 -1
BITMAP
FC
ENDCHAR
STARTCHAR 0060
ENCODING 96
SWIDTH 320 0
DWIDTH 4 0
BBX 2 2 1 7
BITMAP
C0
40
ENDCHAR
STARTCHAR 0061
ENCODING 97
SWIDTH 560 0
DWIDTH 7 0
BBX 5 6 1 0
BITMAP
70
D8
18
F8
98
F8
ENDCHAR
STARTCHAR 0062
ENCODING 98
SWIDTH 640 0
DWIDTH 8 0
BBX 6 9 1 0
BITMAP
C0
C0
C0
F8
FC
CC
C4
CC
B8
ENDCHAR
STARTCHAR 0063
ENCODING 99
SWIDTH 560 0
DWIDTH 7 0
BBX 6 6 0 0
BITMAP
38
7C
C0
C0
7C
38
ENDCHAR
STARTCHAR 0064
ENCODING 100
SWIDTH 640 0
DWIDTH 8 0
BBX 7 9 0 0
BITMAP
06
06
06
3E
7E
C6
C6
6E
3E
ENDCHAR
STARTCHAR 0065
ENCODING 101
SWIDTH 560 0
DWIDTH 7 0
BBX 6 6 0 0
BITMAP
38
6C
FC
40
6C
38
ENDCHAR
STARTCHAR 0066
ENCODING 102
SWIDTH 320 0
DWIDTH 4 0
BBX 4 9 0 0
BITMAP
30
60
60
F0
60
60
60
60
60
ENDCHAR
STARTCHAR 0067
ENCODING 103
SWIDTH 560 0
DWIDTH 7 0
BBX 7 9 0 -3
BITMAP
3E
6E
C6
C6
6E
3E
46
6C
38
ENDCHAR
STARTCHAR 0068
ENCODING 104
SWIDTH 560 0
DWIDTH 7 0
BBX 5 9 1 0
BITMAP
C0
C0
C0
F8
F8
C8
C8
C8
C8
ENDCHAR
STARTCHAR 0069
ENCODING 105
SWIDTH 240 0
DWIDTH 3 0
BBX 2 9 1 0
BITMAP
C0
C0
00
C0
C0
C0
C0
C0
C0
ENDCHAR
STARTCHAR 006A
ENCODING 106
SWIDTH 240 0
DWIDTH 3 0
BBX 3 12 0 -3
BITMAP
60
60
00
60
60
60
60
60
60
60
C0
C0
ENDCHAR
STARTCHAR 006B
ENCODING 107
SWIDTH 560 0
DWIDTH 7 0
BBX 6 9 1 0
BITMAP
C0
C0
C0
D8
F0
E0
F0
D8
CC
ENDCHAR
STARTCHAR 006C
ENCODING 108
SWIDTH 240 0
DWIDTH 3 0
BBX 2 9 1 0
BITMAP
C0
C0
C0
C0
C0
C0
C0
C0
C0
ENDCHAR
STARTCHAR 006D
ENCODING 109
SWIDTH 880 0
DWIDTH 11 0
BBX 9 6 1 0
BITMAP
BB80
DD80
C880
C880
C880
C880
ENDCHAR
STARTCHAR 006E
ENCODING 110
SWIDTH 560 0
DWIDTH 7 0
BBX 5 6 1 0
BITMAP
B8
F8
C8
C8
C8
C8
ENDCHAR
STARTCHAR 006F
ENCODING 111
SWIDTH 560 0
DWIDTH 7 0
BBX 7 6 0 0
BITMAP
38
7C
C6
C6
7C
38
ENDCHAR
STARTCHAR 0070
ENCODING 112
SWIDTH 640 0
DWIDTH 8 0
BBX 6 9 1 -3
BITMAP
B8
FC
C4
CC
FC
F8
C0
C0
C0
ENDCHAR
STARTCHAR 0071
ENCODING 113
SWIDTH 640 0
DWIDTH 8 0
BBX 7 9 0 -3
BITMAP
3E
7E
C6
C6
6E
3E
06
06
06
ENDCHAR
STARTCHAR 0072
ENCODING 114
SWIDTH 400 0
DWIDTH 5 0
BBX 4 6 1 0
BITMAP
B0
F0
C0
C0
C0
C0
ENDCHAR
STARTCHAR 0073
ENCODING 115
SWIDTH 480 0
DWIDTH 6 0
BBX 5 6 0 0
BITMAP
70
48
70
38
C8
78
ENDCHAR
STARTCHAR 0074
ENCODING 116
SWIDTH 400 0
DWIDTH 5 0
BBX 4 8 0 0
BITMAP
60
60
F0
60
60
60
60
30
ENDCHAR
STARTCHAR 0075
ENCODING 117
SWIDTH 560 0
DWIDTH 7 0
BBX 5 6 1 0
BITMAP
88
88
88
88
D8
78
ENDCHAR
STARTCHAR 0076
ENCODING 118
SWIDTH 560 0
DWIDTH 7 0
BBX 6 6 0 0
BITMAP
C4
6C
6C
28
38
30
ENDCHAR
STARTCHAR 0077
ENCODING 119
SWIDTH 800 0
DWIDTH 10 0
BBX 10 6 0 0
BITMAP
CCC0
4EC0
7E80
7A80
3380
3300
ENDCHAR
STARTCHAR 0078
ENCODING 120
SWIDTH 560 0
DWIDTH 7 0
BBX 5 6 1 0
BITMAP
98
D0
70
70
D0
98
ENDCHAR
STARTCHAR 0079
ENCODING 121
SWIDTH 560 0
DWIDTH 7 0
BBX 7 9 0 -3
BITMAP
C6
6C
6C
28
38
18
30
30
60
ENDCHAR
STARTCHAR 007A
ENCODING 122
SWIDTH 480 0
DWIDTH 6 0
BBX 6 6 0 0
BITMAP
78
18
30
60
E0
FC
ENDCHAR
STARTCHAR 007B
ENCODING 123
SWIDTH 400 0
DWIDTH 5 0
BBX 4 12 1 -2
BITMAP
30
40
40
40
40
80
C0
40
40
40
60
30
ENDCHAR
STARTCHAR 007C
ENCODING 124
SWIDTH 240 0
DWIDTH 3 0
BBX 1 12 1 -2
BITMAP
80
80
80
80
80
80
80
80
80
80
80
80
ENDCHAR
STARTCHAR 007D
ENCODING 125
SWIDTH 400 0
DWIDTH 5 0
BBX 4 12 0 -2
BITMAP
C0
60
60
60
60
30
30
60
60
60
60
C0
ENDCHAR
STARTCHAR 007E
ENCODING 126
SWIDTH 560 0
DWIDTH 7 0
BBX 6 2 1 3
BITMAP
E0
BC
ENDCHAR
STARTCHAR 00A0
ENCODING 160
SWIDTH 240 0
DWIDTH 3 0
BBX 0 0 0 0
BITMAP
ENDCHAR
STARTCHAR 00A1
ENCODING 161
SWIDTH 320 0
DWIDTH 4 0
BBX 2 9 1 -3
BITMAP
C0
C0
00
C0
C0
C0
C0
C0
C0
ENDCHAR
STARTCHAR 00A2
ENCODING 162
SWIDTH 560 0
DWIDTH 7 0
BBX 5 9 1 0
BITMAP
20
70
F8
88
80
88
F8
70
20
ENDCHAR
STARTCHAR 00A3
ENCODING 163
SWIDTH 560 0
DWIDTH 7 0
BBX 6 9 1 0
BITMAP
78
78
CC
C0
F0
60
44
CC
F8
ENDCHAR
STARTCHAR 00A4
ENCODING 164
SWIDTH 560 0
DWIDTH 7 0
BBX 5 6 1 0
BITMAP
88
F8
C8
C8
F8
88
ENDCHAR
STARTCHAR 00A5
ENCODING 165
SWIDTH 640 0
DWIDTH 8 0
BBX 6 9 1 0
BITMAP
8C
CC
58
78
FC
30
FC
30
30
ENDCHAR
STARTCHAR 00A6
ENCODING 166
SWIDTH 240 0
DWIDTH 3 0
BBX 1 12 1 -2
BITMAP
80
80
80
80
80
00
00
80
80
80
80
80
ENDCHAR
STARTCHAR 00A7
ENCODING 167
SWIDTH 560 0
DWIDTH 7 0
BBX 5 11 1 -2
BITMAP
70
D8
C0
E0
F8
98
F8
70
18
D8
F8
ENDCHAR
STARTCHAR 00A8
ENCODING 168
SWIDTH 400 0
DWIDTH 5 0
BBX 5 2 0 7
BITMAP
50
D8
ENDCHAR
STARTCHAR 00A9
ENCODING 169
SWIDTH 800 0
DWIDTH 10 0
BBX 10 9 0 0
BITMAP
1E00
2180
4E80
52C0
D040
52C0
4E80
2180
1E00
ENDCHAR
STARTCHAR 00AA
ENCODING 170
SWIDTH 400 0
DWIDTH 5 0
BBX 4 5 1 4
BITMAP
E0
B0
F0
B0
F0
ENDCHAR
STARTCHAR 00AB
ENCODING 171
SWIDTH 560 0
DWIDTH 7 0
BBX 6 5 0 1
BITMAP
2C
68
D8
68
2C
ENDCHAR
STARTCHAR 00AC
ENCODING 172
SWIDTH 560 0
DWIDTH 7 0
BBX 6 3 1 2
BITMAP
FC
0C
0C
ENDCHAR
STARTCHAR 00AD
ENCODING 173
SWIDTH 400 0
DWIDTH 5 0
BBX 3 1 1 3
BITMAP
E0
ENDCHAR
STARTCHAR 00AE
ENCODING 174
SWIDTH 800 0
DWIDTH 10 0
BBX 10 9 0 0
BITMAP
1E00
2180
5E80
5AC0
DE40
5CC0
5A80
2180
1E00
ENDCHAR
STARTCHAR 00AF
ENCODING 175
SWIDTH 320 0
DWIDTH 4 0
BBX 4 1 0 7
BITMAP
F0
ENDCHAR
STARTCHAR 00B0
ENCODING 176
SWIDTH 400 0
DWIDTH 5 0
BBX 4 4 0 5
BITMAP
70
D0
D0
70
ENDCHAR
STARTCHAR 00B1
ENCODING 177
SWIDTH 560 0
DWIDTH 7 0
BBX 6 6 1 1
BITMAP
20
20
FC
20
20
FC
ENDCHAR
STARTCHAR 00B2
ENCODING 178
SWIDTH 400 0
DWIDTH 5 0
BBX 3 5 1 4
BITMAP
E0
A0
60
C0
E0
ENDCHAR
STARTCHAR 00B3
ENCODING 179
SWIDTH 400 0
DWIDTH 5 0
BBX 3 5 1 4
BITMAP
E0
60
60
A0
E0
ENDCHAR
STARTCHAR 00B4
ENCODING 180
SWIDTH 320 0
DWIDTH 4 0
BBX 2 2 1 7
BITMAP
C0
80
ENDCHAR
STARTCHAR 00B5
ENCODING 181
SWIDTH 560 0
DWIDTH 7 0
BBX 6 9 1 -3
BITMAP
CC
CC
CC
CC
DC
FC
C0
C0
C0
ENDCHAR
STARTCHAR 00B6
ENCODING 182
SWIDTH 640 0
DWIDTH 8 0
BBX 8 12 0 -3
BITMAP
7F
72
F2
F2
72
12
12
12
12
12
12
12
ENDCHAR
STARTCHAR 00B7
ENCODING 183
SWIDTH 320 0
DWIDTH 4 0
BBX 2 2 1 3
BITMAP
C0
C0
ENDCHAR
STARTCHAR 00B8
ENCODING 184
SWIDTH 320 0
DWIDTH 4 0
BBX 3 3 0 -3
BITMAP
40
60
E0
ENDCHAR
STARTCHAR 00B9
ENCODING 185
SWIDTH 320 0
DWIDTH 4 0
BBX 3 5 0 4
BITMAP
20
E0
20
20
20
ENDCHAR
STARTCHAR 00BA
ENCODING 186
SWIDTH 480 0
DWIDTH 6 0
BBX 4 5 1 4
BITMAP
60
90
90
90
60
ENDCHAR
STARTCHAR 00BB
ENCODING 187
SWIDTH 560 0
DWIDTH 7 0
BBX 5 5 1 1
BITMAP
B0
D8
48
D8
B0
ENDCHAR
STARTCHAR 00BC
ENCODING 188
SWIDTH 800 0
DWIDTH 10 0
BBX 9 9 1 0
BITMAP
4200
C400
CC00
4800
5800
7300
2500
6F80
4100
ENDCHAR
STARTCHAR 00BD
ENCODING 189
SWIDTH 800 0
DWIDTH 10 0
BBX 9 9 1 0
BITMAP
4200
C400
CC00
4800
5000
7700
2580
6300
4780
ENDCHAR
STARTCHAR 00BE
ENCODING 190
SWIDTH 880 0
DWIDTH 11 0
BBX 10 9 1 0
BITMAP
E100
6200
6600
A400
ED80
1A80
1680
37C0
2080
ENDCHAR
STARTCHAR 00BF
ENCODING 191
SWIDTH 480 0
DWIDTH 6 0
BBX 6 9 0 -3
BITMAP
30
30
00
30
70
C0
CC
FC
78
ENDCHAR
STARTCHAR 00C0
ENCODING 192
SWIDTH 720 0
DWIDTH 9 0
BBX 9 11 0 0
BITMAP
1800
0800
1C00
1C00
1400
3600
3600
7F00
7F00
4300
C180
ENDCHAR
STARTCHAR 00C1
ENCODING 193
SWIDTH 720 0
DWIDTH 9 0
BBX 9 11 0 0
BITMAP
0400
0800
1C00
1C00
1400
3600
3600
7F00
7F00
4300
C180
ENDCHAR
STARTCHAR 00C2
ENCODING 194
SWIDTH 720 0
DWIDTH 9 0
BBX 9 11 0 0
BITMAP
1C00
3600
1C00
1C00
1400
3600
3600
7F00
7F00
4300
C180
ENDCHAR
STARTCHAR 00C3
ENCODING 195
SWIDTH 720 0
DWIDTH 9 0
BBX 9 11 0 0
BITMAP
1A00
2C00
1C00
1C00
1400
3600
3600
7F00
7F00
4300
C180
ENDCHAR
STARTCHAR 00C4
ENCODING 196
SWIDTH 720 0
DWIDTH 9 0
BBX 9 11 0 0
BITMAP
2200
2200
1C00
1C00
1400
3600
3600
7F00
7F00
4300
C180
ENDCHAR
STARTCHAR 00C5
ENCODING 197
SWIDTH 720 0
DWIDTH 9 0
BBX 9 11 0 0
BITMAP
1C00
1400
1C00
1C00
1400
3600
3600
7F00
7F00
4300
C180
ENDCHAR
STARTCHAR 00C6
ENCODING 198
SWIDTH 1040 0
DWIDTH 13 0
BBX 13 9 0 0
BITMAP
03F8
07F8
0D80
0DF0
19F0
3F80
3F80
61F8
E1F8
ENDCHAR
STARTCHAR 00C7
ENCODING 199
SWIDTH 800 0
DWIDTH 10 0
BBX 9 12 0 -3
BITMAP
1E00
3F00
6180
4000
C000
4000
6180
7380
3F00
0800
0400
0C00
ENDCHAR
STARTCHAR 00C8
ENCODING 200
SWIDTH 560 0
DWIDTH 7 0
BBX 6 11 1 0
BITMAP
60
30
FC
FC
C0
F8
F8
C0
C0
FC
FC
ENDCHAR
STARTCHAR 00C9
ENCODING 201
SWIDTH 560 0
DWIDTH 7 0
BBX 6 11 1 0
BITMAP
18
20
FC
FC
C0
F8
F8
C0
C0
FC
FC
ENDCHAR
STARTCHAR 00CA
ENCODING 202
SWIDTH 560 0
DWIDTH 7 0
BBX 6 11 1 0
BITMAP
70
D8
FC
FC
C0
F8
F8
C0
C0
FC
FC
ENDCHAR
STARTCHAR 00CB
ENCODING 203
SWIDTH 560 0
DWIDTH 7 0
BBX 6 11 1 0
BITMAP
58
48
FC
FC
C0
F8
F8
C0
C0
FC
FC
ENDCHAR
STARTCHAR 00CC
ENCODING 204
SWIDTH 320 0
DWIDTH 4 0
BBX 3 11 0 0
BITMAP
C0
60
60
60
60
60
60
60
60
60
60
ENDCHAR
STARTCHAR 00CD
ENCODING 205
SWIDTH 320 0
DWIDTH 4 0
BBX 3 11 1 0
BITMAP
60
C0
C0
C0
C0
C0
C0
C0
C0
C0
C0
ENDCHAR
STARTCHAR 00CE
ENCODING 206
SWIDTH 320 0
DWIDTH 4 0
BBX 4 11 0 0
BITMAP
60
90
60
60
60
60
60
60
60
60
60
ENDCHAR
STARTCHAR 00CF
ENCODING 207
SWIDTH 320 0
DWIDTH 4 0
BBX 4 11 0 0
BITMAP
F0
B0
60
60
60
60
60
60
60
60
60
ENDCHAR
STARTCHAR 00D0
ENCODING 208
SWIDTH 720 0
DWIDTH 9 0
BBX 9 9 0 0
BITMAP
7E00
7F00
6300
6180
F980
6180
6300
7F00
7E00
ENDCHAR
STARTCHAR 00D1
ENCODING 209
SWIDTH 800 0
DWIDTH 10 0
BBX 8 11 1 0
BITMAP
34
2C
C3
E3
F3
F3
DB
CF
CF
C7
C7
ENDCHAR
STARTCHAR 00D2
ENCODING 210
SWIDTH 800 0
DWIDTH 10 0
BBX 10 11 0 0
BITMAP
1800
0C00
1E00
3F00
6180
4080
C0C0
4080
6180
3F00
1E00
ENDCHAR
STARTCHAR 00D3
ENCODING 211
SWIDTH 800 0
DWIDTH 10 0
BBX 10 11 0 0
BITMAP
0600
0C00
1E00
3F00
6180
4080
C0C0
4080
6180
3F00
1E00
ENDCHAR
STARTCHAR 00D4
ENCODING 212
SWIDTH 800 0
DWIDTH 10 0
BBX 10 11 0 0
BITMAP
0C00
1200
1E00
3F00
6180
4080
C0C0
4080
6180
3F00
1E00
ENDCHAR
STARTCHAR 00D5
ENCODING 213
SWIDTH 800 0
DWIDTH 10 0
BBX 10 11 0 0
BITMAP
1A00
1600
1E00
3F00
6180
4080
C0C0
4080
6180
3F00
1E00
ENDCHAR
STARTCHAR 00D6
ENCODING 214
SWIDTH 800 0
DWIDTH 10 0
BBX 10 11 0 0
BITMAP
3300
3300
1E00
3F00
6180
4080
C0C0
4080
6180
3F00
1E00
ENDCHAR
STARTCHAR 00D7
ENCODING 215
SWIDTH 560 0
DWIDTH 7 0
BBX 5 6 1 1
BITMAP
88
D8
70
70
D8
88
ENDCHAR
STARTCHAR 00D8
ENCODING 216
SWIDTH 800 0
DWIDTH 10 0
BBX 10 11 0 -1
BITMAP
0080
1F80
3F00
6380
4680
CCC0
5880
7180
3F00
7E00
4000
ENDCHAR
STARTCHAR 00D9
ENCODING 217
SWIDTH 720 0
DWIDTH 9 0
BBX 7 11 1 0
BITMAP
20
10
C6
C6
C6
C6
C6
C6
C6
FC
78
ENDCHAR
STARTCHAR 00DA
ENCODING 218
SWIDTH 720 0
DWIDTH 9 0
BBX 7 11 1 0
BITMAP
18
30
C6
C6
C6
C6
C6
C6
C6
FC
78
ENDCHAR
STARTCHAR 00DB
ENCODING 219
SWIDTH 720 0
DWIDTH 9 0
BBX 7 11 1 0
BITMAP
38
6C
C6
C6
C6
C6
C6
C6
C6
FC
78
ENDCHAR
STARTCHAR 00DC
ENCODING 220
SWIDTH 720 0
DWIDTH 9 0
BBX 7 11 1 0
BITMAP
6C
6C
C6
C6
C6
C6
C6
C6
C6
FC
78
ENDCHAR
STARTCHAR 00DD
ENCODING 221
SWIDTH 640 0
DWIDTH 8 0
BBX 8 11 0 0
BITMAP
0C
18
C3
66
36
3C
18
18
18
18
18
ENDCHAR
STARTCHAR 00DE
ENCODING 222
SWIDTH 640 0
DWIDTH 8 0
BBX 6 9 1 0
BITMAP
C0
C0
FC
CC
CC
DC
F8
C0
C0
ENDCHAR
STARTCHAR 00DF
ENCODING 223
SWIDTH 560 0
DWIDTH 7 0
BBX 6 9 1 0
BITMAP
78
FC
CC
D8
F0
F8
CC
E4
DC
ENDCHAR
STARTCHAR 00E0
ENCODING 224
SWIDTH 560 0
DWIDTH 7 0
BBX 5 8 1 0
BITMAP
60
00
70
D8
18
F8
98
F8
ENDCHAR
STARTCHAR 00E1
ENCODING 225
SWIDTH 560 0
DWIDTH 7 0
BBX 5 8 1 0
BITMAP
30
00
70
D8
18
F8
98
F8
ENDCHAR
STARTCHAR 00E2
ENCODING 226
SWIDTH 560 0
DWIDTH 7 0
BBX 5 8 1 0
BITMAP
70
00
70
D8
18
F8
98
F8
ENDCHAR
STARTCHAR 00E3
ENCODING 227
SWIDTH 560 0
DWIDTH 7 0
BBX 5 10 1 0
BITMAP
40
F0
30
00
70
D8
18
F8
98
F8
ENDCHAR
STARTCHAR 00E4
ENCODING 228
SWIDTH 560 0
DWIDTH 7 0
BBX 5 9 1 0
BITMAP
D0
D0
00
70
D8
18
F8
98
F8
ENDCHAR
STARTCHAR 00E5
ENCODING 229
SWIDTH 560 0
DWIDTH 7 0
BBX 5 9 1 0
BITMAP
60
50
60
70
D8
18
F8
98
F8
ENDCHAR
STARTCHAR 00E6
ENCODING 230
SWIDTH 880 0
DWIDTH 11 0
BBX 9 6 1 0
BITMAP
7700
9D80
7F80
9800
9D80
F700
ENDCHAR
STARTCHAR 00E7
ENCODING 231
SWIDTH 560 0
DWIDTH 7 0
BBX 6 9 0 -3
BITMAP
38
7C
C0
C0
64
7C
10
08
38
ENDCHAR
STARTCHAR 00E8
ENCODING 232
SWIDTH 560 0
DWIDTH 7 0
BBX 6 8 0 0
BITMAP
30
00
38
6C
FC
40
6C
38
ENDCHAR
STARTCHAR 00E9
ENCODING 233
SWIDTH 560 0
DWIDTH 7 0
BBX 6 8 0 0
BITMAP
18
00
38
6C
FC
40
6C
38
ENDCHAR
STARTCHAR 00EA
ENCODING 234
SWIDTH 560 0
DWIDTH 7 0
BBX 6 8 0 0
BITMAP
38
00
38
6C
FC
40
6C
38
ENDCHAR
STARTCHAR 00EB
ENCODING 235
SWIDTH 560 0
DWIDTH 7 0
BBX 6 9 0 0
BITMAP
28
6C
00
38
6C
FC
40
6C
38
ENDCHAR
STARTCHAR 00EC
ENCODING 236
SWIDTH 240 0
DWIDTH 3 0
BBX 3 9 0 0
BITMAP
C0
40
00
60
60
60
60
60
60
ENDCHAR
STARTCHAR 00ED
ENCODING 237
SWIDTH 240 0
DWIDTH 3 0
BBX 3 9 1 0
BITMAP
60
C0
00
C0
C0
C0
C0
C0
C0
ENDCHAR
STARTCHAR 00EE
ENCODING 238
SWIDTH 240 0
DWIDTH 3 0
BBX 4 9 0 0
BITMAP
60
B0
00
60
60
60
60
60
60
ENDCHAR
STARTCHAR 00EF
ENCODING 239
SWIDTH 240 0
DWIDTH 3 0
BBX 4 9 0 0
BITMAP
A0
B0
00
60
60
60
60
60
60
ENDCHAR
STARTCHAR 00F0
ENCODING 240
SWIDTH 560 0
DWIDTH 7 0
BBX 7 10 0 0
BITMAP
20
3C
3C
2C
3E
6E
C6
C6
6C
38
ENDCHAR
STARTCHAR 00F1
ENCODING 241
SWIDTH 560 0
DWIDTH 7 0
BBX 5 10 1 0
BITMAP
60
78
10
00
B8
F8
C8
C8
C8
C8
ENDCHAR
STARTCHAR 00F2
ENCODING 242
SWIDTH 560 0
DWIDTH 7 0
BBX 7 8 0 0
BITMAP
30
00
38
7C
C6
C6
7C
38
ENDCHAR
STARTCHAR 00F3
ENCODING 243
SWIDTH 560 0
DWIDTH 7 0
BBX 7 8 0 0
BITMAP
18
00
38
7C
C6
C6
7C
38
ENDCHAR
STARTCHAR 00F4
ENCODING 244
SWIDTH 560 0
DWIDTH 7 0
BBX 7 8 0 0
BITMAP
38
00
38
7C
C6
C6
7C
38
ENDCHAR
STARTCHAR 00F5
ENCODING 245
SWIDTH 560 0
DWIDTH 7 0
BBX 7 10 0 0
BITMAP
30
3C
08
00
38
7C
C6
C6
7C
38
ENDCHAR
STARTCHAR 00F6
ENCODING 246
SWIDTH 560 0
DWIDTH 7 0
BBX 7 9 0 0
BITMAP
2C
2C
00
38
7C
C6
C6
7C
38
ENDCHAR
STARTCHAR 00F7
ENCODING 247
SWIDTH 560 0
DWIDTH 7 0
BBX 6 7 1 0
BITMAP
20
20
00
FC
00
30
20
ENDCHAR
STARTCHAR 00F8
ENCODING 248
SWIDTH 560 0
DWIDTH 7 0
BBX 7 8 0 -1
BITMAP
04
3E
7C
DE
D6
7C
78
40
ENDCHAR
STARTCHAR 00F9
ENCODING 249
SWIDTH 560 0
DWIDTH 7 0
BBX 5 9 1 0
BITMAP
60
20
00
88
88
88
88
D8
78
ENDCHAR
STARTCHAR 00FA
ENCODING 250
SWIDTH 560 0
DWIDTH 7 0
BBX 5 9 1 0
BITMAP
30
20
00
88
88
88
88
D8
78
ENDCHAR
STARTCHAR 00FB
ENCODING 251
SWIDTH 560 0
DWIDTH 7 0
BBX 5 9 1 0
BITMAP
70
58
00
88
88
88
88
D8
78
ENDCHAR
STARTCHAR 00FC
ENCODING 252
SWIDTH 560 0
DWIDTH 7 0
BBX 5 9 1 0
BITMAP
58
58
00
88
88
88
88
D8
78
ENDCHAR
STARTCHAR 00FD
ENCODING 253
SWIDTH 560 0
DWIDTH 7 0
BBX 7 12 0 -3
BITMAP
18
10
00
C6
6C
6C
28
38
18
30
30
60
ENDCHAR
STARTCHAR 00FE
ENCODING 254
SWIDTH 640 0
DWIDTH 8 0
BBX 6 12 1 -3
BITMAP
C0
C0
C0
F8
FC
C4
C4
FC
F8
C0
C0
C0
ENDCHAR
STARTCHAR 00FF
ENCODING 255
SWIDTH 560 0
DWIDTH 7 0
BBX 7 12 0 -3
BITMAP
28
6C
00
C6
6C
6C
28
38
18
30
30
60
ENDCHAR
STARTCHAR 0131
ENCODING 305
SWIDTH 240 0
DWIDTH 3 0
BBX 2 6 1 0
BITMAP
C0
C0
C0
C0
C0
C0
ENDCHAR
STARTCHAR 0141
ENCODING 321
SWIDTH 560 0
DWIDTH 7 0
BBX 7 9 0 0
BITMAP
60
60
60
78
70
E0
60
7E
7E
ENDCHAR
STARTCHAR 0142
ENCODING 322
SWIDTH 320 0
DWIDTH 4 0
BBX 4 9 0 0
BITMAP
60
60
60
70
70
E0
60
60
60
ENDCHAR
STARTCHAR 0152
ENCODING 338
SWIDTH 1120 0
DWIDTH 14 0
BBX 13 9 0 0
BITMAP
1EF8
3FF8
61C0
40F8
C0F8
40C0
61C0
3FF8
1EF8
ENDCHAR
STARTCHAR 0153
ENCODING 339
SWIDTH 960 0
DWIDTH 12 0
BBX 11 6 0 0
BITMAP
39C0
7E60
C7E0
4600
7F60
39C0
ENDCHAR
STARTCHAR 0160
ENCODING 352
SWIDTH 640 0
DWIDTH 8 0
BBX 7 11 0 0
BITMAP
3C
18
3C
7E
44
60
3C
06
C6
7E
3C
ENDCHAR
STARTCHAR 0161
ENCODING 353
SWIDTH 480 0
DWIDTH 6 0
BBX 5 8 0 0
BITMAP
70
00
70
48
70
38
C8
78
ENDCHAR
STARTCHAR 0178
ENCODING 376
SWIDTH 640 0
DWIDTH 8 0
BBX 8 11 0 0
BITMAP
24
24
C3
66
36
3C
18
18
18
18
18
ENDCHAR
STARTCHAR 017D
ENCODING 381
SWIDTH 640 0
DWIDTH 8 0
BBX 7 11 0 0
BITMAP
3C
18
7E
7E
0E
0C
18
30
60
FE
FE
ENDCHAR
STARTCHAR 017E
ENCODING 382
SWIDTH 480 0
DWIDTH 6 0
BBX 6 9 0 0
BITMAP
78
30
00
78
18
30
60
E0
FC
ENDCHAR
STARTCHAR 0192
ENCODING 402
SWIDTH 480 0
DWIDTH 6 0
BBX 6 11 0 -2
BITMAP
0C
1C
10
7C
30
30
30
20
20
E0
C0
ENDCHAR
STARTCHAR 02C6
ENCODING 710
SWIDTH 400 0
DWIDTH 5 0
BBX 3 2 1 7
BITMAP
E0
A0
ENDCHAR
STARTCHAR 02C7
ENCODING 711
SWIDTH 400 0
DWIDTH 5 0
BBX 3 2 1 7
BITMAP
A0
E0
ENDCHAR
STARTCHAR 02C9
ENCODING 713
SWIDTH 320 0
DWIDTH 4 0
BBX 4 1 0 7
BITMAP
F0
ENDCHAR
STARTCHAR 02D8
ENCODING 728
SWIDTH 400 0
DWIDTH 5 0
BBX 4 2 0 7
BITMAP
D0
70
ENDCHAR
STARTCHAR 02D9
ENCODING 729
SWIDTH 160 0
DWIDTH 2 0
BBX 2 2 0 7
BITMAP
C0
C0
ENDCHAR
STARTCHAR 02DA
ENCODING 730
SWIDTH 320 0
DWIDTH 4 0
BBX 3 2 0 7
BITMAP
60
E0
ENDCHAR
STARTCHAR 02DB
ENCODING 731
SWIDTH 240 0
DWIDTH 3 0
BBX 2 3 0 -3
BITMAP
40
80
40
ENDCHAR
STARTCHAR 02DC
ENCODING 732
SWIDTH 400 0
DWIDTH 5 0
BBX 4 3 0 7
BITMAP
60
F0
30
ENDCHAR
STARTCHAR 02DD
ENCODING 733
SWIDTH 400 0
DWIDTH 5 0
BBX 4 2 0 7
BITMAP
50
F0
ENDCHAR
STARTCHAR 0394
ENCODING 916
SWIDTH 720 0
DWIDTH 9 0
BBX 8 9 0 0
BITMAP
18
1C
34
36
26
62
63
7F
FF
ENDCHAR
STARTCHAR 03A9
ENCODING 937
SWIDTH 800 0
DWIDTH 10 0
BBX 8 9 1 0
BITMAP
3C
FE
C3
83
83
C3
66
EF
EF
ENDCHAR
STARTCHAR 03BC
ENCODING 956
SWIDTH 560 0
DWIDTH 7 0
BBX 6 9 1 -3
BITMAP
CC
CC
CC
CC
DC
FC
C0
C0
C0
ENDCHAR
STARTCHAR 03C0
ENCODING 960
SWIDTH 640 0
DWIDTH 8 0
BBX 7 6 0 0
BITMAP
FE
64
64
64
66
66
ENDCHAR
STARTCHAR 2007
ENCODING 8199
SWIDTH 640 0
DWIDTH 8 0
BBX 0 0 0 0
BITMAP
ENDCHAR
STARTCHAR 2008
ENCODING 8200
SWIDTH 320 0
DWIDTH 4 0
BBX 0 0 0 0
BITMAP
ENDCHAR
STARTCHAR 200B
ENCODING 8203
SWIDTH 0 0
DWIDTH 0 0
BBX 0 0 0 0
BITMAP
ENDCHAR
STARTCHAR 2013
ENCODING 8211
SWIDTH 640 0
DWIDTH 8 0
BBX 6 1 1 3
BITMAP
FC
ENDCHAR
STARTCHAR 2014
ENCODING 8212
SWIDTH 1120 0
DWIDTH 14 0
BBX 12 1 1 3
BITMAP
FFF0
ENDCHAR
STARTCHAR 2018
ENCODING 8216
SWIDTH 240 0
DWIDTH 3 0
BBX 2 4 0 5
BITMAP
40
80
C0
40
ENDCHAR
STARTCHAR 2019
ENCODING 8217
SWIDTH 240 0
DWIDTH 3 0
BBX 1 4 1 5
BITMAP
80
80
80
80
ENDCHAR
STARTCHAR 201A
ENCODING 8218
SWIDTH 240 0
DWIDTH 3 0
BBX 2 4 0 -2
BITMAP
40
C0
40
40
ENDCHAR
STARTCHAR 201C
ENCODING 8220
SWIDTH 400 0
DWIDTH 5 0
BBX 5 4 0 5
BITMAP
48
90
D8
58
ENDCHAR
STARTCHAR 201D
ENCODING 8221
SWIDTH 400 0
DWIDTH 5 0
BBX 4 4 1 5
BITMAP
B0
B0
90
A0
ENDCHAR
STARTCHAR 201E
ENCODING 8222
SWIDTH 400 0
DWIDTH 5 0
BBX 5 4 0 -2
BITMAP
58
D8
48
50
ENDCHAR
STARTCHAR 2020
ENCODING 8224
SWIDTH 400 0
DWIDTH 5 0
BBX 5 7 0 2
BITMAP
20
20
F8
20
20
20
20
ENDCHAR
STARTCHAR 2021
ENCODING 8225
SWIDTH 480 0
DWIDTH 6 0
BBX 4 9 1 0
BITMAP
60
60
F0
60
60
60
F0
60
60
ENDCHAR
STARTCHAR 2022
ENCODING 8226
SWIDTH 560 0
DWIDTH 7 0
BBX 5 5 1 1
BITMAP
70
F8
F8
F8
70
ENDCHAR
STARTCHAR 2026
ENCODING 8230
SWIDTH 960 0
DWIDTH 12 0
BBX 9 2 1 0
BITMAP
CC80
CC80
ENDCHAR
STARTCHAR 2030
ENCODING 8240
SWIDTH 1120 0
DWIDTH 14 0
BBX 12 9 1 0
BITMAP
E300
B200
B400
EC00
0800
13E0
3490
2490
6360
ENDCHAR
STARTCHAR 2039
ENCODING 8249
SWIDTH 320 0
DWIDTH 4 0
BBX 3 5 0 1
BITMAP
20
60
C0
60
20
ENDCHAR
STARTCHAR 203A
ENCODING 8250
SWIDTH 320 0
DWIDTH 4 0
BBX 2 5 1 1
BITMAP
80
C0
40
C0
80
ENDCHAR
STARTCHAR 2042
ENCODING 8258
SWIDTH 800 0
DWIDTH 10 0
BBX 9 9 1 0
BITMAP
0800
3C00
1800
1C00
0000
4200
F780
6300
A500
ENDCHAR
STARTCHAR 2044
ENCODING 8260
SWIDTH 560 0
DWIDTH 7 0
BBX 7 9 0 0
BITMAP
06
04
0C
18
10
30
20
40
C0
ENDCHAR
STARTCHAR 2051
ENCODING 8273
SWIDTH 400 0
DWIDTH 5 0
BBX 4 9 1 0
BITMAP
40
F0
60
A0
00
40
F0
60
A0
ENDCHAR
STARTCHAR 2070
ENCODING 8304
SWIDTH 400 0
DWIDTH 5 0
BBX 4 5 1 4
BITMAP
E0
B0
B0
B0
E0
ENDCHAR
STARTCHAR 2074
ENCODING 8308
SWIDTH 480 0
DWIDTH 6 0
BBX 4 5 1 4
BITMAP
60
60
A0
F0
20
ENDCHAR
STARTCHAR 2075
ENCODING 8309
SWIDTH 400 0
DWIDTH 5 0
BBX 3 5 1 4
BITMAP
E0
80
E0
A0
E0
ENDCHAR
STARTCHAR 2076
ENCODING 8310
SWIDTH 400 0
DWIDTH 5 0
BBX 4 5 1 4
BITMAP
60
80
E0
B0
E0
ENDCHAR
STARTCHAR 2077
ENCODING 8311
SWIDTH 400 0
DWIDTH 5 0
BBX 3 5 1 4
BITMAP
E0
20
40
40
C0
ENDCHAR
STARTCHAR 2078
ENCODING 8312
SWIDTH 400 0
DWIDTH 5 0
BBX 4 5 1 4
BITMAP
E0
A0
E0
B0
E0
ENDCHAR
STARTCHAR 2079
ENCODING 8313
SWIDTH 400 0
DWIDTH 5 0
BBX 4 5 1 4
BITMAP
E0
A0
F0
20
E0
ENDCHAR
STARTCHAR 2080
ENCODING 8320
SWIDTH 400 0
DWIDTH 5 0
BBX 4 5 1 -1
BITMAP
E0
B0
B0
B0
E0
ENDCHAR
STARTCHAR 2081
ENCODING 8321
SWIDTH 320 0
DWIDTH 4 0
BBX 3 4 0 -1
BITMAP
20
E0
20
20
ENDCHAR
STARTCHAR 2082
ENCODING 8322
SWIDTH 400 0
DWIDTH 5 0
BBX 3 4 1 -1
BITMAP
E0
A0
C0
E0
ENDCHAR
STARTCHAR 2083
ENCODING 8323
SWIDTH 400 0
DWIDTH 5 0
BBX 3 4 1 -1
BITMAP
E0
40
20
E0
ENDCHAR
STARTCHAR 2084
ENCODING 8324
SWIDTH 480 0
DWIDTH 6 0
BBX 4 4 1 -1
BITMAP
60
A0
F0
20
ENDCHAR
STARTCHAR 2085
ENCODING 8325
SWIDTH 400 0
DWIDTH 5 0
BBX 3 4 1 -1
BITMAP
E0
E0
20
E0
ENDCHAR
STARTCHAR 2086
ENCODING 8326
SWIDTH 400 0
DWIDTH 5 0
BBX 4 4 1 -1
BITMAP
60
C0
B0
E0
ENDCHAR
STARTCHAR 2087
ENCODING 8327
SWIDTH 400 0
DWIDTH 5 0
BBX 3 4 1 -1
BITMAP
E0
60
40
C0
ENDCHAR
STARTCHAR 2088
ENCODING 8328
SWIDTH 400 0
DWIDTH 5 0
BBX 3 4 1 -1
BITMAP
E0
A0
E0
E0
ENDCHAR
STARTCHAR 2089
ENCODING 8329
SWIDTH 400 0
DWIDTH 5 0
BBX 4 4 1 -1
BITMAP
E0
B0
60
E0
ENDCHAR
STARTCHAR 20AC
ENCODING 8364
SWIDTH 640 0
DWIDTH 8 0
BBX 7 9 1 0
BITMAP
1E
3E
60
FC
40
F8
60
3E
1E
ENDCHAR
STARTCHAR 2113
ENCODING 8467
SWIDTH 400 0
DWIDTH 5 0
BBX 5 9 0 0
BITMAP
30
78
78
78
70
E0
E0
68
38
ENDCHAR
STARTCHAR 2122
ENCODING 8482
SWIDTH 880 0
DWIDTH 11 0
BBX 10 5 0 4
BITMAP
F6C0
26C0
26C0
2540
2540
ENDCHAR
STARTCHAR 2126
ENCODING 8486
SWIDTH 800 0
DWIDTH 10 0
BBX 8 9 1 0
BITMAP
3C
FE
C3
83
83
C3
66
EF
EF
ENDCHAR
STARTCHAR 2160
ENCODING 8544
SWIDTH 480 0
DWIDTH 6 0
BBX 5 9 1 0
BITMAP
F8
60
60
60
60
60
60
60
F8
ENDCHAR
STARTCHAR 2161
ENCODING 8545
SWIDTH 800 0
DWIDTH 10 0
BBX 8 9 1 0
BITMAP
FF
66
66
66
66
66
66
66
FF
ENDCHAR
STARTCHAR 2162
ENCODING 8546
SWIDTH 1040 0
DWIDTH 13 0
BBX 12 9 1 0
BITMAP
FFF0
64C0
64C0
64C0
64C0
64C0
64C0
64C0
FFF0
ENDCHAR
STARTCHAR 2163
ENCODING 8547
SWIDTH 1040 0
DWIDTH 13 0
BBX 12 9 1 0
BITMAP
FFF0
6CC0
6CC0
6CC0
6480
6780
6780
6380
FFF0
ENDCHAR
STARTCHAR 2164
ENCODING 8548
SWIDTH 800 0
DWIDTH 10 0
BBX 9 9 1 0
BITMAP
FF80
6600
6600
6600
2400
3C00
3C00
1C00
FF00
ENDCHAR
STARTCHAR 2165
ENCODING 8549
SWIDTH 1040 0
DWIDTH 13 0
BBX 12 9 1 0
BITMAP
FFF0
66C0
66C0
66C0
24C0
3CC0
3CC0
1CC0
FFF0
ENDCHAR
STARTCHAR 2166
ENCODING 8550
SWIDTH 1360 0
DWIDTH 17 0
BBX 15 9 1 0
BITMAP
FFFE
66C8
66C8
66C8
24C8
3CC8
3CC8
1CC8
FFFE
ENDCHAR
STARTCHAR 2167
ENCODING 8551
SWIDTH 1600 0
DWIDTH 20 0
BBX 18 9 1 0
BITMAP
FFFFC0
66C980
66C980
66C980
24C980
3CC980
3CC980
1CC980
FFFFC0
ENDCHAR
STARTCHAR 2168
ENCODING 8552
SWIDTH 1040 0
DWIDTH 13 0
BBX 11 9 1 0
BITMAP
FFE0
6CC0
6780
6780
6300
6780
6780
6CC0
FFE0
ENDCHAR
STARTCHAR 2169
ENCODING 8553
SWIDTH 800 0
DWIDTH 10 0
BBX 8 9 1 0
BITMAP
FF
66
6C
3C
18
3C
3C
66
FF
ENDCHAR
STARTCHAR 216C
ENCODING 8556
SWIDTH 640 0
DWIDTH 8 0
BBX 7 9 1 0
BITMAP
F0
60
60
60
60
66
66
66
FE
ENDCHAR
STARTCHAR 216D
ENCODING 8557
SWIDTH 720 0
DWIDTH 9 0
BBX 8 9 1 0
BITMAP
3F
67
C3
80
80
80
C3
7F
3B
ENDCHAR
STARTCHAR 216E
ENCODING 8558
SWIDTH 720 0
DWIDTH 9 0
BBX 8 9 1 0
BITMAP
FC
6E
66
63
63
63
66
6E
FC
ENDCHAR
STARTCHAR 216F
ENCODING 8559
SWIDTH 1040 0
DWIDTH 13 0
BBX 12 9 1 0
BITMAP
F1F0
71C0
71C0
7BC0
7BC0
6AC0
6EC0
6EC0
F5F0
ENDCHAR
STARTCHAR 2190
ENCODING 8592
SWIDTH 1040 0
DWIDTH 13 0
BBX 13 6 0 1
BITMAP
2000
2000
6000
FFF8
6000
2000
ENDCHAR
STARTCHAR 2191
ENCODING 8593
SWIDTH 480 0
DWIDTH 6 0
BBX 5 12 1 -2
BITMAP
20
70
F0
28
20
20
20
20
20
20
20
20
ENDCHAR
STARTCHAR 2192
ENCODING 8594
SWIDTH 1120 0
DWIDTH 14 0
BBX 13 6 0 1
BITMAP
0040
0060
0070
FFF8
0060
0040
ENDCHAR
STARTCHAR 2193
ENCODING 8595
SWIDTH 480 0
DWIDTH 6 0
BBX 5 12 0 -2
BITMAP
30
30
30
30
30
30
30
30
30
F8
30
20
ENDCHAR
STARTCHAR 2196
ENCODING 8598
SWIDTH 880 0
DWIDTH 11 0
BBX 8 9 1 0
BITMAP
E0
C0
E0
B0
18
0C
06
03
01
ENDCHAR
STARTCHAR 2197
ENCODING 8599
SWIDTH 720 0
DWIDTH 9 0
BBX 8 9 0 0
BITMAP
07
03
07
0D
18
30
60
C0
80
ENDCHAR
STARTCHAR 2198
ENCODING 8600
SWIDTH 880 0
DWIDTH 11 0
BBX 9 9 1 0
BITMAP
8000
C000
6000
3000
1800
0C80
0780
0380
0780
ENDCHAR
STARTCHAR 2199
ENCODING 8601
SWIDTH 720 0
DWIDTH 9 0
BBX 9 9 0 0
BITMAP
0080
0180
0300
0600
0C00
9800
F000
E000
F000
ENDCHAR
STARTCHAR 21A9
ENCODING 8617
SWIDTH 880 0
DWIDTH 11 0
BBX 11 8 0 1
BITMAP
0780
00C0
2060
6060
E0C0
FF80
6000
2000
ENDCHAR
STARTCHAR 21B0
ENCODING 8624
SWIDTH 800 0
DWIDTH 10 0
BBX 8 9 1 0
BITMAP
20
60
FF
E1
21
01
01
01
01
ENDCHAR
STARTCHAR 21B1
ENCODING 8625
SWIDTH 720 0
DWIDTH 9 0
BBX 9 9 0 0
BITMAP
0200
0300
FF80
C300
C200
C000
C000
C000
C000
ENDCHAR
STARTCHAR 21B2
ENCODING 8626
SWIDTH 800 0
DWIDTH 10 0
BBX 9 9 0 0
BITMAP
0180
0180
0180
0180
2180
6180
FF80
6000
2000
ENDCHAR
STARTCHAR 21B3
ENCODING 8627
SWIDTH 880 0
DWIDTH 11 0
BBX 8 9 1 0
BITMAP
80
80
80
80
86
87
FF
06
04
ENDCHAR
STARTCHAR 21B4
ENCODING 8628
SWIDTH 800 0
DWIDTH 10 0
BBX 8 9 1 0
BITMAP
FE
06
06
06
06
06
0F
06
02
ENDCHAR
STARTCHAR 21C6
ENCODING 8646
SWIDTH 1200 0
DWIDTH 15 0
BBX 13 11 1 -1
BITMAP
2000
2000
6000
FFF8
6000
0000
0020
FFF8
0030
0020
0040
ENDCHAR
STARTCHAR 2202
ENCODING 8706
SWIDTH 640 0
DWIDTH 8 0
BBX 7 9 0 0
BITMAP
78
7C
06
3E
6E
C2
C6
7C
3C
ENDCHAR
STARTCHAR 2206
ENCODING 8710
SWIDTH 720 0
DWIDTH 9 0
BBX 8 9 0 0
BITMAP
18
1C
34
36
26
62
63
7F
FF
ENDCHAR
STARTCHAR 220F
ENCODING 8719
SWIDTH 720 0
DWIDTH 9 0
BBX 7 9 1 0
BITMAP
FE
FE
C6
C6
C6
C6
C6
C6
C6
ENDCHAR
STARTCHAR 2211
ENCODING 8721
SWIDTH 560 0
DWIDTH 7 0
BBX 7 9 0 0
BITMAP
FE
FE
70
18
0C
18
70
FE
FE
ENDCHAR
STARTCHAR 2212
ENCODING 8722
SWIDTH 560 0
DWIDTH 7 0
BBX 6 1 1 3
BITMAP
FC
ENDCHAR
STARTCHAR 2215
ENCODING 8725
SWIDTH 480 0
DWIDTH 6 0
BBX 5 9 0 0
BITMAP
08
18
10
30
30
20
60
40
C0
ENDCHAR
STARTCHAR 2219
ENCODING 8729
SWIDTH 320 0
DWIDTH 4 0
BBX 2 2 1 3
BITMAP
C0
C0
ENDCHAR
STARTCHAR 221A
ENCODING 8730
SWIDTH 720 0
DWIDTH 9 0
BBX 9 11 0 0
BITMAP
0380
0200
0200
0600
C400
4400
6C00
2800
2800
3800
1000
ENDCHAR
STARTCHAR 221E
ENCODING 8734
SWIDTH 800 0
DWIDTH 10 0
BBX 9 4 1 2
BITMAP
E700
FD80
9980
FF00
ENDCHAR
STARTCHAR 222B
ENCODING 8747
SWIDTH 320 0
DWIDTH 4 0
BBX 4 12 0 -3
BITMAP
30
70
60
60
60
60
60
60
60
60
60
C0
ENDCHAR
STARTCHAR 2248
ENCODING 8776
SWIDTH 560 0
DWIDTH 7 0
BBX 6 5 1 1
BITMAP
E0
BC
00
F4
18
ENDCHAR
STARTCHAR 2260
ENCODING 8800
SWIDTH 640 0
DWIDTH 8 0
BBX 6 6 1 1
BITMAP
08
18
FC
30
FC
40
ENDCHAR
STARTCHAR 2264
ENCODING 8804
SWIDTH 560 0
DWIDTH 7 0
BBX 5 6 1 1
BITMAP
18
F8
C0
78
00
F8
ENDCHAR
STARTCHAR 2265
ENCODING 8805
SWIDTH 560 0
DWIDTH 7 0
BBX 5 6 1 1
BITMAP
80
F8
18
E0
00
F8
ENDCHAR
STARTCHAR 22C5
ENCODING 8901
SWIDTH 320 0
DWIDTH 4 0
BBX 2 2 1 3
BITMAP
C0
C0
ENDCHAR
STARTCHAR 24C5
ENCODING 9413
SWIDTH 800 0
DWIDTH 10 0
BBX 10 9 0 0
BITMAP
1E00
2180
4E80
4A40
CE40
48C0
4880
2100
1E00
ENDCHAR
STARTCHAR 25A0
ENCODING 9632
SWIDTH 880 0
DWIDTH 11 0
BBX 9 9 1 0
BITMAP
FF80
FF80
FF80
FF80
FF80
FF80
FF80
FF80
FF80
ENDCHAR
STARTCHAR 25A1
ENCODING 9633
SWIDTH 880 0
DWIDTH 11 0
BBX 9 9 1 0
BITMAP
FF80
C080
C080
C080
C080
C080
C080
C080
FF80
ENDCHAR
STARTCHAR 25B2
ENCODING 9650
SWIDTH 800 0
DWIDTH 10 0
BBX 10 9 0 0
BITMAP
0400
0C00
0E00
1E00
1F00
3F00
7F80
7FC0
FFC0
ENDCHAR
STARTCHAR 25B3
ENCODING 9651
SWIDTH 800 0
DWIDTH 10 0
BBX 10 9 0 0
BITMAP
0400
0C00
0E00
1A00
1300
3100
6180
60C0
FFC0
ENDCHAR
STARTCHAR 25CA
ENCODING 9674
SWIDTH 640 0
DWIDTH 8 0
BBX 7 9 0 0
BITMAP
18
3C
2C
66
C6
66
6C
3C
18
ENDCHAR
STARTCHAR 25CB
ENCODING 9675
SWIDTH 800 0
DWIDTH 10 0
BBX 10 9 0 0
BITMAP
1E00
3380
6180
40C0
C0C0
40C0
6080
3380
1E00
ENDCHAR
STARTCHAR 25CF
ENCODING 9679
SWIDTH 800 0
DWIDTH 10 0
BBX 10 9 0 0
BITMAP
1E00
3F80
7F80
7FC0
FFC0
7FC0
7F80
3F80
1E00
ENDCHAR
STARTCHAR 262E
ENCODING 9774
SWIDTH 800 0
DWIDTH 10 0
BBX 10 9 0 0
BITMAP
1E00
3F80
6C80
4CC0
DEC0
7FC0
6D80
3F80
1E00
ENDCHAR
STARTCHAR 2713
ENCODING 10003
SWIDTH 960 0
DWIDTH 12 0
BBX 10 9 1 0
BITMAP
0040
00C0
0180
0300
8600
CC00
5800
7000
2000
ENDCHAR
STARTCHAR 2715
ENCODING 10005
SWIDTH 720 0
DWIDTH 9 0
BBX 8 9 1 0
BITMAP
81
C3
66
3C
18
3C
66
C3
81
ENDCHAR
STARTCHAR 2780
ENCODING 10112
SWIDTH 800 0
DWIDTH 10 0
BBX 9 9 1 0
BITMAP
3C00
4300
8900
9880
8880
8880
8900
4300
3C00
ENDCHAR
STARTCHAR 2781
ENCODING 10113
SWIDTH 800 0
DWIDTH 10 0
BBX 9 9 1 0
BITMAP
3C00
4300
9900
A580
8C80
9080
BD00
4300
3C00
ENDCHAR
STARTCHAR 2782
ENCODING 10114
SWIDTH 800 0
DWIDTH 10 0
BBX 9 9 1 0
BITMAP
3C00
4300
BD00
8880
8C80
A480
9D00
4300
3C00
ENDCHAR
STARTCHAR 2783
ENCODING 10115
SWIDTH 800 0
DWIDTH 10 0
BBX 9 9 1 0
BITMAP
3C00
4300
8900
9980
A880
BC80
8900
4300
3C00
ENDCHAR
STARTCHAR 2784
ENCODING 10116
SWIDTH 800 0
DWIDTH 10 0
BBX 9 9 1 0
BITMAP
3C00
4300
9D00
9080
BC80
A480
9900
4300
3C00
ENDCHAR
STARTCHAR 2785
ENCODING 10117
SWIDTH 800 0
DWIDTH 10 0
BBX 9 9 1 0
BITMAP
3C00
4300
9D00
B080
BC80
A480
9900
4300
3C00
ENDCHAR
STARTCHAR 2786
ENCODING 10118
SWIDTH 800 0
DWIDTH 10 0
BBX 9 9 1 0
BITMAP
3C00
4300
BD00
8C80
9880
9180
9100
4200
3C00
ENDCHAR
STARTCHAR 2787
ENCODING 10119
SWIDTH 800 0
DWIDTH 10 0
BBX 9 9 1 0
BITMAP
3C00
4300
9D00
B480
9880
A480
9D00
4300
3C00
ENDCHAR
STARTCHAR 2788
ENCODING 10120
SWIDTH 800 0
DWIDTH 10 0
BBX 9 9 1 0
BITMAP
3C00
4300
9D00
B480
BC80
8480
9900
4300
3C00
ENDCHAR
STARTCHAR E000
ENCODING 57344
SWIDTH 720 0
DWIDTH 9 0
BBX 9 9 0 0
BITMAP
3F80
3000
3000
3000
3000
3000
F800
7000
2000
ENDCHAR
STARTCHAR E001
ENCODING 57345
SWIDTH 1120 0
DWIDTH 14 0
BBX 12 9 1 0
BITMAP
0F00
1900
3060
60F0
61F0
F040
60C0
0980
0F00
ENDCHAR
STARTCHAR E002
ENCODING 57346
SWIDTH 960 0
DWIDTH 12 0
BBX 11 9 1 0
BITMAP
3C00
7400
C180
83C0
87E0
8180
C100
6700
3C00
ENDCHAR
STARTCHAR FB00
ENCODING 64256
SWIDTH 720 0
DWIDTH 9 0
BBX 8 9 0 0
BITMAP
33
67
66
FF
66
66
66
66
66
ENDCHAR
STARTCHAR FB01
ENCODING 64257
SWIDTH 640 0
DWIDTH 8 0
BBX 7 9 0 0
BITMAP
36
66
60
FE
66
66
66
66
66
ENDCHAR
STARTCHAR FB02
ENCODING 64258
SWIDTH 640 0
DWIDTH 8 0
BBX 7 9 0 0
BITMAP
36
66
66
FE
66
66
66
66
66
ENDCHAR
STARTCHAR FB03
ENCODING 64259
SWIDTH 960 0
DWIDTH 12 0
BBX 11 9 0 0
BITMAP
3360
7760
6600
FFE0
6660
6660
6660
6660
6660
ENDCHAR
STARTCHAR FB04
ENCODING 64260
SWIDTH 960 0
DWIDTH 12 0
BBX 11 9 0 0
BITMAP
3360
6760
6660
FFE0
6660
6660
6660
6660
6660
ENDCHAR
STARTCHAR FEFF
ENCODING 65279
SWIDTH 0 0
DWIDTH 0 0
BBX 0 0 0 0
BITMAP
ENDCHAR
ENDFONT
